# xmcd
#
# Track frame offsets: 
#        182
#        32505
#        64412
#        80175
#        103237
#        143705
#        163530
#        191767
#        213180
#        230680
#        250490
#        272635
#
# Disc length: 3913 seconds
#
# Revision: 3
# Processed by: cddbd v1.5.2PL0 Copyright (c) Steve Scherf et al.
# Submitted via: ExactAudioCopyFreeDBPlugin 1.0
#
DISCID=b20f470c
DTITLE=Various Artist - Smooth Grooves:  Stepping Out [Rhino]
DYEAR=2001
DGENRE=SMB
TTITLE0=William DeVaughn - Be Thankful for What You Got
TTITLE1=Jeannie Reynolds - The Fruit Song
TTITLE2=The Jones Girls - This Feeling's Killing Me
TTITLE3=Phil Collins - In the Air Tonight ('88 Remix)
TTITLE4=Down to the Bone - Staten Island Groove
TTITLE5=Blue Magic - Teach Me (It's Something About Love)
TTITLE6=The Ebonys - Life in the Country
TTITLE7=L.J. Reynolds - Key to the World
TTITLE8=Patti Austin - In and Out of Love
TTITLE9=The BlackByrds - Soft and Easy
TTITLE10=Ray Obiedo - Sweet Summer Days (ft Peabo Bryson)
TTITLE11=Michael Franks - Mr. Smooth
EXTD=
EXTT0=
EXTT1=
EXTT2=
EXTT3=
EXTT4=
EXTT5=
EXTT6=
EXTT7=
EXTT8=
EXTT9=
EXTT10=
EXTT11=
PLAYORDER=
